# xmcd CD database file
#
# Track frame offsets:
#	150
#	16022
#	31894
#
# Disc length: 634 seconds
#
# Revision: 0
# Processed by: cddbd v1.5.1PL0 Copyright (c) Steve Scherf et al.
# Submitted via: CDex 1.51
#
DISCID=13027803
DTITLE=U - 魔界天使ジブリール EPISODE2
DYEAR=1900
DGENRE=Game
TTITLE0=LITTLE MY STAR
TTITLE1=LITTLE MY STAR コーラスのみバージョン
TTITLE2=LITTLE MY STAR カラオケバージョン
EXTD=
EXTT0=
EXTT1=
EXTT2=
PLAYORDER=
